<?xml version="1.0" encoding="utf-8"?>
<svg version="1.1" id="Capa_1" xmlns="http://www.w3.org/2000/svg" xmlns:xlink="http://www.w3.org/1999/xlink" x="0px" y="0px"
	 viewBox="0 0 203.3 226.7" style="enable-background:new 0 0 203.3 226.7;" xml:space="preserve">
<path style="fill:#FFFFFF;" d="M150.1,59.3c-4.8-3.7-13.5-9.4-25.6-11.4c-20.3-3.5-41.2,4.7-54.5,19.5
	C50.7,89,54.9,116.2,55.9,122.6c0.8,5.2,4.9,31.4,26.2,45.1c23.3,14.9,59,9.5,85.4-15.5l30.9,29.6c-4.9,4.9-12,11.3-21.5,17.4
	c-6.2,4.1-23.4,15-45.7,18.8c-44.8,7.7-80.3-18.2-82-19.5c-30.4-22.9-38.3-55.2-40.3-65.9C8.1,128.4-1.9,71.1,40.5,31.8
	C77.2-2.3,128.5,0,160.2,13.6c9,3.9,16,8.5,20.8,12.1l-27.8,35.4L150.1,59.3z"/>
<polygon style="fill:#FFFFFF;" points="167.1,71 198.5,37.4 189.7,30.2 159.7,64.4 "/>
</svg>
